<svg width="32" height="32" viewBox="0 0 32 32" fill="none" xmlns="http://www.w3.org/2000/svg">
    <path opacity="0.12" fill-rule="evenodd" clip-rule="evenodd"
          d="M22.9333 8H2.66663V22.9333C2.66663 25.1735 2.66663 26.2936 3.1026 27.1493C3.48609 27.9019 4.09802 28.5139 4.85066 28.8974C5.70631 29.3333 6.82641 29.3333 9.06662 29.3333H22.9333C25.1735 29.3333 26.2936 29.3333 27.1493 28.8974C27.9019 28.5139 28.5138 27.9019 28.8973 27.1493C29.3333 26.2936 29.3333 25.1735 29.3333 22.9333L29.3333 22.6667H28C25.7908 22.6667 24 20.8758 24 18.6667C24 16.4575 25.7908 14.6667 28 14.6667H29.3333L29.3333 14.4C29.3333 12.1598 29.3333 11.0397 28.8973 10.184C28.5138 9.43139 27.9019 8.81947 27.1493 8.43597C26.2936 8 25.1735 8 22.9333 8Z"
          fill="white"/>
    <path fill-rule="evenodd" clip-rule="evenodd"
          d="M17.5591 3.54099C17.1453 3.42282 16.6834 3.41605 15.4666 3.41605H5.33329C4.27475 3.41605 3.41663 4.27417 3.41663 5.33271C3.41663 6.39126 4.27475 7.24938 5.33329 7.24938L16 7.24938L21.1666 7.24938L19.9866 5.67605C19.2565 4.7026 18.974 4.33713 18.6312 4.07702C18.3101 3.83342 17.9466 3.65166 17.5591 3.54099ZM5.33329 1.91605C3.44632 1.91605 1.91663 3.44574 1.91663 5.33271V7.99938V22.9327L1.91663 22.9657C1.91662 24.0579 1.91662 24.9234 1.97361 25.621C2.0319 26.3344 2.15351 26.938 2.43435 27.4892C2.88974 28.3829 3.6164 29.1096 4.51017 29.565C5.06135 29.8458 5.66497 29.9674 6.37836 30.0257C7.07598 30.0827 7.94147 30.0827 9.0336 30.0827H9.06662H22.9333H22.9663C24.0585 30.0827 24.9239 30.0827 25.6216 30.0257C26.335 29.9674 26.9386 29.8458 27.4897 29.565C28.3835 29.1096 29.1102 28.3829 29.5656 27.4892C29.8464 26.938 29.968 26.3344 30.0263 25.621C30.0833 24.9234 30.0833 24.0579 30.0833 22.9658V22.9658V22.9657V22.9327V14.3994V14.3664V14.3663V14.3663C30.0833 13.2742 30.0833 12.4087 30.0263 11.7111C29.968 10.9977 29.8464 10.3941 29.5656 9.84292C29.1102 8.94915 28.3835 8.2225 27.4897 7.7671C26.9386 7.48626 26.335 7.36465 25.6216 7.30637C24.9401 7.25069 24.0983 7.2494 23.0416 7.24938L21.1866 4.77605L21.1188 4.68552C20.4801 3.83359 20.0687 3.28488 19.5379 2.88208C19.0687 2.52606 18.5374 2.2604 17.971 2.09866C17.3303 1.91567 16.6445 1.91581 15.5798 1.91603L15.4666 1.91605H5.33329ZM3.41663 8.74938V22.9327C3.41663 24.0652 3.41721 24.8694 3.46863 25.4988C3.51934 26.1195 3.61572 26.5037 3.77086 26.8082C4.08244 27.4197 4.57963 27.9169 5.19116 28.2285C5.49563 28.3836 5.87988 28.48 6.50051 28.5307C7.12989 28.5821 7.93414 28.5827 9.06662 28.5827H22.9333C24.0658 28.5827 24.87 28.5821 25.4994 28.5307C26.12 28.48 26.5043 28.3836 26.8088 28.2285C27.4203 27.9169 27.9175 27.4197 28.2291 26.8082C28.3842 26.5037 28.4806 26.1195 28.5313 25.4988C28.5751 24.9629 28.582 24.3002 28.5831 23.416H28C25.3766 23.416 23.25 21.2894 23.25 18.666C23.25 16.0427 25.3766 13.916 28 13.916H28.5831C28.582 13.0319 28.5751 12.3692 28.5313 11.8333C28.4806 11.2126 28.3842 10.8284 28.2291 10.5239C27.9175 9.91238 27.4203 9.4152 26.8088 9.10361C26.5043 8.94847 26.12 8.85209 25.4994 8.80138C24.87 8.74996 24.0658 8.74938 22.9333 8.74938L22.6666 8.74938L16 8.74938L5.33329 8.74938L3.41663 8.74938ZM28.5833 15.416H28C26.205 15.416 24.75 16.8711 24.75 18.666C24.75 20.461 26.205 21.916 28 21.916H28.5833V15.416Z"
          fill="white"/>
</svg>
