<svg width="18" height="22" viewBox="0 0 18 22" fill="none" xmlns="http://www.w3.org/2000/svg">
<path d="M17.1271 9.4737L13.6796 7.48267L8.9563 11.0118L13.6795 14.541L17.1388 12.5431C17.6782 12.2154 18 11.6428 18 11.0119C18 10.381 17.6781 9.80842 17.1271 9.4737Z" fill="#FF9100"/>
<path d="M10.1504 11.012C10.1452 11.0186 5.97422 16.3814 5.97083 16.3857L0.537375 20.6648C0.202969 20.3304 0 19.8767 0 19.3751V2.61925C0 2.11774 0.202969 1.66392 0.537375 1.32959L5.97083 5.63822C5.97422 5.64256 10.1452 11.0053 10.1504 11.012Z" fill="#25D9F8"/>
<path d="M10.1505 11.012L8.9563 12.5524V9.47144L10.1505 11.012Z" fill="#00C0F1"/>
<path d="M13.6852 7.47721L10.1504 11.012L0.537354 1.32964C0.65673 1.22212 0.776187 1.13853 0.907545 1.05494C1.48071 0.732555 2.16142 0.744456 2.72272 1.0908L8.95623 4.75455L13.6852 7.47721Z" fill="#7FE881"/>
<path d="M13.6852 7.4773L10.1505 11.0121L8.9563 9.8179V4.75464L13.6852 7.4773Z" fill="#5BC980"/>
<path d="M13.6852 14.5467L8.95623 17.2694L2.71078 20.9156C2.42418 21.0827 2.11369 21.1783 1.79123 21.1783C1.49269 21.1783 1.19414 21.0947 0.907545 20.9394C0.776187 20.8558 0.65673 20.7723 0.537354 20.6648L10.1504 11.012L13.6852 14.5467Z" fill="#FF637B"/>
<path d="M13.6852 14.5466L8.9563 17.2694V12.2061L10.1505 11.012L13.6852 14.5466Z" fill="#E63950"/>
</svg>
