<svg width="32" height="32" viewBox="0 0 32 32" fill="none" xmlns="http://www.w3.org/2000/svg">
    <path opacity="0.12" fill-rule="evenodd" clip-rule="evenodd"
          d="M22.9334 8H2.66675V22.9333C2.66675 25.1735 2.66675 26.2936 3.10272 27.1493C3.48622 27.9019 4.09814 28.5139 4.85079 28.8974C5.70643 29.3333 6.82654 29.3333 9.06674 29.3333H22.9334C25.1736 29.3333 26.2937 29.3333 27.1494 28.8974C27.902 28.5139 28.5139 27.9019 28.8974 27.1493C29.3334 26.2936 29.3334 25.1735 29.3334 22.9333L29.3334 22.6667H28.0001C25.7909 22.6667 24.0001 20.8758 24.0001 18.6667C24.0001 16.4575 25.7909 14.6667 28.0001 14.6667H29.3334L29.3334 14.4C29.3334 12.1598 29.3334 11.0397 28.8974 10.184C28.5139 9.43139 27.902 8.81947 27.1494 8.43597C26.2937 8 25.1736 8 22.9334 8Z"
          fill="white"/>
    <path fill-rule="evenodd" clip-rule="evenodd"
          d="M15.4667 3.41605C16.6835 3.41605 17.1455 3.42282 17.5592 3.54099C17.9467 3.65166 18.3103 3.83342 18.6313 4.07702C18.9741 4.33713 19.2567 4.7026 19.9867 5.67605L21.1667 7.24938H16.0001H5.33341C4.27487 7.24938 3.41675 6.39126 3.41675 5.33271C3.41675 4.27417 4.27487 3.41605 5.33341 3.41605H15.4667ZM3.41675 8.16155C3.9633 8.53258 4.62304 8.74938 5.33341 8.74938H16.0001H22.6667H22.9334C24.0659 8.74938 24.8701 8.74996 25.4995 8.80138C26.1202 8.85209 26.5044 8.94847 26.8089 9.10361C27.4204 9.4152 27.9176 9.91238 28.2292 10.5239C28.3843 10.8284 28.4807 11.2126 28.5314 11.8333C28.5752 12.3692 28.5821 13.0319 28.5832 13.916H28.0001C25.3767 13.916 23.2501 16.0427 23.2501 18.666C23.2501 21.2894 25.3767 23.416 28.0001 23.416H28.5832C28.5821 24.3002 28.5752 24.9629 28.5314 25.4988C28.4807 26.1195 28.3843 26.5037 28.2292 26.8082C27.9176 27.4197 27.4204 27.9169 26.8089 28.2285C26.5044 28.3836 26.1202 28.48 25.4995 28.5307C24.8701 28.5821 24.0659 28.5827 22.9334 28.5827H9.06674C7.93426 28.5827 7.13001 28.5821 6.50063 28.5307C5.88 28.48 5.49575 28.3836 5.19128 28.2285C4.57975 27.9169 4.08257 27.4197 3.77098 26.8082C3.61584 26.5037 3.51946 26.1195 3.46875 25.4988C3.41733 24.8694 3.41675 24.0652 3.41675 22.9327V8.16155ZM28.0001 15.416H28.5834V21.916H28.0001C26.2052 21.916 24.7501 20.461 24.7501 18.666C24.7501 16.8711 26.2052 15.416 28.0001 15.416ZM23.0417 7.24938L21.1867 4.77605L21.1189 4.68553C20.4802 3.83359 20.0688 3.28488 19.538 2.88208C19.0688 2.52606 18.5375 2.2604 17.9712 2.09866C17.3304 1.91567 16.6446 1.91581 15.5799 1.91603L15.4667 1.91605H5.33341C3.44644 1.91605 1.91675 3.44574 1.91675 5.33271V22.9327V22.9657C1.91674 24.0579 1.91674 24.9234 1.97374 25.621C2.03202 26.3344 2.15363 26.938 2.43447 27.4892C2.88987 28.3829 3.61652 29.1096 4.51029 29.565C5.06147 29.8458 5.66509 29.9674 6.37848 30.0257C7.0761 30.0827 7.94159 30.0827 9.03372 30.0827H9.06674H22.9334H22.9664C24.0586 30.0827 24.9241 30.0827 25.6217 30.0257C26.3351 29.9674 26.9387 29.8458 27.4899 29.565C28.3836 29.1096 29.1103 28.3829 29.5657 27.4892C29.8465 26.938 29.9681 26.3344 30.0264 25.621C30.0834 24.9234 30.0834 24.0579 30.0834 22.9657V22.9327V14.3994V14.3664C30.0834 13.2742 30.0834 12.4087 30.0264 11.7111C29.9681 10.9977 29.8465 10.3941 29.5657 9.84292C29.1103 8.94915 28.3836 8.2225 27.4899 7.7671C26.9387 7.48626 26.3351 7.36465 25.6217 7.30637C24.9402 7.25069 24.0985 7.2494 23.0417 7.24938ZM14.0834 15.3327C14.0834 14.9185 13.7476 14.5827 13.3334 14.5827C12.9192 14.5827 12.5834 14.9185 12.5834 15.3327V17.916H10.0001C9.58587 17.916 9.25008 18.2518 9.25008 18.666C9.25008 19.0803 9.58587 19.416 10.0001 19.416H12.5834V21.9994C12.5834 22.4136 12.9192 22.7494 13.3334 22.7494C13.7476 22.7494 14.0834 22.4136 14.0834 21.9994V19.416H16.6667C17.081 19.416 17.4167 19.0803 17.4167 18.666C17.4167 18.2518 17.081 17.916 16.6667 17.916H14.0834V15.3327Z"
          fill="white"/>
</svg>
