<svg width="32" height="32" viewBox="0 0 32 32" fill="none" xmlns="http://www.w3.org/2000/svg">
    <path opacity="0.12" fill-rule="evenodd" clip-rule="evenodd"
          d="M18.6666 2.72653V7.46605C18.6666 8.58616 18.6666 9.14621 18.8846 9.57404C19.0763 9.95036 19.3823 10.2563 19.7586 10.4481C20.1864 10.6661 20.7465 10.6661 21.8666 10.6661H26.6061C26.6666 11.1415 26.6666 11.7176 26.6666 12.6464V21.3327C26.6666 24.1329 26.6666 25.5331 26.1216 26.6026C25.6423 27.5434 24.8773 28.3083 23.9365 28.7877C22.867 29.3327 21.4668 29.3327 18.6666 29.3327H13.3333C10.533 29.3327 9.13286 29.3327 8.0633 28.7877C7.12249 28.3083 6.35759 27.5434 5.87822 26.6026C5.33325 25.5331 5.33325 24.1329 5.33325 21.3327V10.666C5.33325 7.86575 5.33325 6.46562 5.87822 5.39606C6.35759 4.45525 7.12249 3.69035 8.0633 3.21098C9.13286 2.66602 10.533 2.66602 13.3333 2.66602H16.6862C17.615 2.66602 18.1911 2.66602 18.6666 2.72653Z"
          fill="white"/>
    <path fill-rule="evenodd" clip-rule="evenodd"
          d="M17.9166 3.4259C17.602 3.41686 17.2089 3.41603 16.6862 3.41603H13.3333C11.9207 3.41603 10.9065 3.41661 10.1103 3.48166C9.32296 3.54599 8.81522 3.66962 8.40379 3.87925C7.6041 4.28671 6.95394 4.93688 6.54647 5.73657C6.33684 6.148 6.21321 6.65573 6.14888 7.44311C6.08384 8.23925 6.08325 9.25352 6.08325 10.666V21.3327C6.08325 22.7452 6.08384 23.7595 6.14888 24.5556C6.21321 25.343 6.33684 25.8507 6.54647 26.2622C6.95394 27.0618 7.6041 27.712 8.40379 28.1195C8.81522 28.3291 9.32296 28.4527 10.1103 28.5171C10.9065 28.5821 11.9207 28.5827 13.3333 28.5827H18.6666C20.0791 28.5827 21.0934 28.5821 21.8895 28.5171C22.6769 28.4527 23.1846 28.3291 23.596 28.1195C24.3957 27.712 25.0459 27.0618 25.4534 26.2622C25.663 25.8507 25.7866 25.343 25.851 24.5556C25.916 23.7595 25.9166 22.7452 25.9166 21.3327V12.6464C25.9166 12.1237 25.9158 11.7306 25.9067 11.4161H21.8666H21.8361H21.8361C21.302 11.4161 20.8561 11.4161 20.4919 11.3863C20.112 11.3553 19.7554 11.2882 19.4181 11.1163C18.9007 10.8527 18.48 10.432 18.2163 9.91454C18.0445 9.57728 17.9774 9.22062 17.9463 8.84074C17.9166 8.47651 17.9166 8.03066 17.9166 7.4965V7.46607V3.4259ZM25.6477 9.91607C25.5525 9.66125 25.4329 9.41578 25.2903 9.18315C25.0383 8.77186 24.6831 8.40988 23.7931 7.51988L21.8127 5.53951C20.9227 4.64951 20.5608 4.29435 20.1495 4.04231C19.9169 3.89976 19.6714 3.78015 19.4166 3.68493V7.46607C19.4166 8.0385 19.4172 8.42271 19.4413 8.71859C19.4648 9.00572 19.5067 9.143 19.5528 9.23356C19.6727 9.46876 19.8639 9.65999 20.0991 9.77983C20.1897 9.82597 20.3269 9.86785 20.6141 9.89131C20.9099 9.91549 21.2942 9.91607 21.8666 9.91607H25.6477ZM19.2712 2.0749C18.6085 1.91581 17.9137 1.91589 16.7852 1.91602L16.6862 1.91603H13.3333L13.2997 1.91603C11.928 1.91603 10.8525 1.91602 9.98819 1.98664C9.10805 2.05855 8.38094 2.20741 7.72281 2.54274C6.64087 3.09401 5.76124 3.97365 5.20996 5.05558C4.87463 5.71372 4.72577 6.44082 4.65386 7.32096C4.58324 8.18531 4.58325 9.26075 4.58325 10.6325V10.666V21.3327V21.3663C4.58325 22.738 4.58324 23.8134 4.65386 24.6778C4.72577 25.5579 4.87463 26.285 5.20996 26.9431C5.76124 28.0251 6.64087 28.9047 7.72281 29.456C8.38094 29.7913 9.10805 29.9402 9.98819 30.0121C10.8525 30.0827 11.9279 30.0827 13.2996 30.0827H13.2997H13.3333H18.6666H18.7002H18.7002C20.0719 30.0827 21.1473 30.0827 22.0117 30.0121C22.8918 29.9402 23.6189 29.7913 24.277 29.456C25.359 28.9047 26.2386 28.0251 26.7899 26.9431C27.1252 26.285 27.2741 25.5579 27.346 24.6778C27.4166 23.8134 27.4166 22.738 27.4166 21.3663V21.3663V21.3327V12.6464L27.4166 12.5474C27.4167 11.4189 27.4168 10.7241 27.2577 10.0615C27.1169 9.47475 26.8845 8.91386 26.5693 8.3994C26.2132 7.81833 25.7218 7.32708 24.9238 6.52923L24.8538 6.45922L22.8734 4.47885L22.8034 4.40881L22.8034 4.4088C22.0055 3.61078 21.5143 3.11942 20.9332 2.76335C20.4188 2.44808 19.8579 2.21576 19.2712 2.0749ZM11.9999 15.2494C11.5857 15.2494 11.2499 15.5851 11.2499 15.9994C11.2499 16.4136 11.5857 16.7494 11.9999 16.7494H19.9999C20.4141 16.7494 20.7499 16.4136 20.7499 15.9994C20.7499 15.5851 20.4141 15.2494 19.9999 15.2494H11.9999ZM11.9999 20.5827C11.5857 20.5827 11.2499 20.9185 11.2499 21.3327C11.2499 21.7469 11.5857 22.0827 11.9999 22.0827H17.3333C17.7475 22.0827 18.0833 21.7469 18.0833 21.3327C18.0833 20.9185 17.7475 20.5827 17.3333 20.5827H11.9999Z"
          fill="white"/>
</svg>
