<svg width="32" height="32" viewBox="0 0 32 32" fill="none" xmlns="http://www.w3.org/2000/svg">
    <path
        d="M16.0901 32C15.9427 32 15.7975 31.966 15.6658 31.9008C15.1488 31.6445 3 25.4737 3 12.9884V4.95711C3 4.70753 3.09993 4.46804 3.27778 4.29157C3.45563 4.11511 3.697 4.01595 3.94853 4.01595C8.08475 3.71511 12.0787 2.38866 15.565 0.158501C15.883 -0.0528338 16.2988 -0.0528338 16.6168 0.158501C20.1039 2.38576 24.0971 3.7122 28.2333 4.01595C28.4848 4.01595 28.7262 4.11511 28.904 4.29157C29.0819 4.46804 29.1818 4.70753 29.1818 4.95711V12.988C29.1818 25.4726 17.0331 31.6444 16.516 31.9004C16.3843 31.9655 16.2391 32 16.0917 32L16.0901 32Z"
        fill="white" fill-opacity="0.1"/>
    <path
        d="M16.0901 32C15.9427 32 15.7975 31.966 15.6658 31.9008C15.1488 31.6445 3 25.4737 3 12.9884V4.95711C3 4.70753 3.09993 4.46804 3.27778 4.29157C3.45563 4.11511 3.697 4.01595 3.94853 4.01595C8.08475 3.71511 12.0787 2.38866 15.565 0.158501C15.883 -0.0528338 16.2988 -0.0528338 16.6168 0.158501C20.1039 2.38576 24.0971 3.7122 28.2333 4.01595C28.4848 4.01595 28.7262 4.11511 28.904 4.29157C29.0819 4.46804 29.1818 4.70753 29.1818 4.95711V12.988C29.1818 25.4726 17.0331 31.6444 16.516 31.9004C16.3843 31.9655 16.2391 32 16.0917 32L16.0901 32ZM4.89641 5.86921V12.9888C4.89641 23.0697 13.9963 28.8023 16.0901 29.9866C18.1815 28.7983 27.2838 23.0472 27.2838 12.9888V5.86921C23.3114 5.44611 19.4859 4.14189 16.0901 2.05414C12.6945 4.14189 8.86905 5.44606 4.89641 5.86921Z"
        fill="white"/>
    <path
        d="M15.1428 18.1816C14.9346 18.1819 14.7347 18.1019 14.5878 17.9593L11.236 14.721C11.0863 14.579 11.0011 14.3855 11 14.1829C10.999 13.9803 11.0817 13.7855 11.23 13.6425C11.3783 13.4991 11.5796 13.4192 11.7893 13.4202C11.999 13.4212 12.1995 13.5032 12.3465 13.6479L15.1431 16.3495L21.2899 10.4094C21.4368 10.2647 21.6374 10.1827 21.8467 10.1817C22.0564 10.1806 22.258 10.2609 22.4063 10.4039C22.5543 10.5473 22.6374 10.7417 22.6364 10.9444C22.6353 11.147 22.5504 11.3408 22.4004 11.4828L15.6983 17.9594C15.5513 18.102 15.3515 18.1819 15.1428 18.1816Z"
        fill="white"/>
</svg>
