<svg width="36" height="10" viewBox="0 0 36 10" fill="none" xmlns="http://www.w3.org/2000/svg">
<path d="M26.1699 0.409461C25.5904 0.21044 24.6833 0 23.5585 0C20.6789 0 18.6452 1.31484 18.6308 3.20228C18.6128 4.58891 20.076 5.37031 21.1828 5.8336C22.3185 6.30995 22.6982 6.61011 22.6946 7.03589C22.6874 7.68352 21.7875 7.97716 20.9507 7.97716C19.8006 7.97716 19.1725 7.83197 18.2061 7.46819L17.8479 7.31648L17.4394 9.4894C18.1395 9.75367 19.4011 9.98042 20.7041 10C23.7654 10 25.7667 8.69331 25.7901 6.68515C25.8153 5.57749 25.0234 4.74062 23.3569 4.04894C22.3436 3.60033 21.7155 3.30016 21.7155 2.84502C21.7155 2.44209 22.2537 2.01142 23.3785 2.01142C24.3485 1.99837 25.0234 2.1876 25.5616 2.38499L25.8315 2.49429L26.2401 0.394779L26.1699 0.409461ZM33.6424 0.176182H31.3927C30.6926 0.176182 30.1653 0.350734 29.8593 0.980424L25.5328 9.8646H28.5941L29.206 8.40783L32.9423 8.41109C33.0304 8.75204 33.3004 9.8646 33.3004 9.8646H36L33.6424 0.176182ZM14.4896 0.094616H17.407L15.5821 9.78793H12.6683L14.4896 0.0913536V0.094616ZM7.08374 5.43719L7.38609 6.78303L10.2369 0.176182H13.327L8.73589 9.85155H5.65295L3.13333 1.65905C3.07934 1.51713 3.01635 1.42251 2.86517 1.33442C2.0103 0.931484 1.05824 0.603588 0 0.373571L0.039594 0.169656H4.73509C5.37219 0.192495 5.88512 0.373572 6.05609 0.990211L7.08194 5.44209V5.43719H7.08374ZM30.0429 6.42577L31.2055 3.71452C31.1911 3.74388 31.4449 3.15498 31.5925 2.79119L31.7922 3.62806L32.4671 6.42414H30.0411V6.42577H30.0429Z" fill="#142787"/>
</svg>
