<svg width="188" height="48" viewBox="0 0 188 48" fill="none" xmlns="http://www.w3.org/2000/svg">
<g clip-path="url(#clip0_14657_100560)">
<path d="M14.8738 12.2412V18.152H12.5483C9.61063 18.152 7.24365 20.4843 7.24365 23.3796C7.24365 26.2739 9.61063 28.6061 12.5473 28.6061H14.8738V34.517C20.1774 33.5118 24.1366 28.9281 24.1366 23.3785C24.1366 17.8704 20.1785 13.2867 14.8738 12.2412Z" fill="#003791"/>
<path d="M12.5479 30.4549C8.58982 30.4549 5.3651 27.279 5.3651 23.3796C5.3651 19.4802 8.58873 16.3032 12.5457 16.3032H12.9953V12H12.5468C6.18247 12 1 17.1065 1 23.3785C1 29.692 6.18247 34.7985 12.5479 34.7985H12.9964V30.4571H12.5479V30.4549ZM40.4572 27.3598C39.5223 28.1162 38.3555 28.5278 37.1529 28.5254C34.2555 28.5254 31.93 26.2335 31.93 23.3785C31.93 20.5246 34.2544 18.2328 37.1529 18.2328C38.4139 18.2273 39.6331 18.6848 40.5795 19.5184L42.4161 17.71C40.9719 16.4098 39.096 15.6929 37.1529 15.6986C32.827 15.6986 29.359 19.1571 29.359 23.3785C29.359 27.601 32.827 31.0988 37.1529 31.0988C39.1521 31.0988 40.9472 30.3752 42.2939 29.1693L40.4572 27.3598ZM123.495 16.3021L117.741 23.1373L111.947 16.3021L111.906 16.3829V16.3021H109.58V30.456H111.906V20.0815L117.741 26.9167L123.495 20.243V30.456H125.78V16.3021H123.495ZM59.7172 23.3785C59.7172 27.6414 56.2076 31.0584 51.9233 31.0584C47.5985 31.0584 44.1305 27.601 44.1305 23.3785C44.1305 19.1571 47.6389 15.6986 51.9233 15.6986C56.2076 15.6986 59.7172 19.1571 59.7172 23.3785ZM57.1057 23.3785C57.1057 20.5246 54.7802 18.2328 51.8829 18.2328C48.9856 18.2328 46.66 20.5246 46.66 23.3785C46.66 26.2335 48.9856 28.5254 51.8829 28.5254C54.7802 28.5254 57.1057 26.2335 57.1057 23.3785ZM107.214 23.3785C107.214 27.6414 103.704 31.0584 99.4199 31.0584C95.0941 31.0584 91.626 27.601 91.626 23.3785C91.626 19.1571 95.1356 15.6986 99.4199 15.6986C103.745 15.6986 107.214 19.1571 107.214 23.3785ZM104.643 23.3785C104.643 20.5246 102.317 18.2328 99.4199 18.2328C96.5226 18.2328 94.1971 20.5246 94.1971 23.3785C94.1971 26.2335 96.5226 28.5254 99.4199 28.5254C102.276 28.5254 104.643 26.2335 104.643 23.3785ZM91.5857 16.3021H88.4428L82.527 22.2533H80.1196V16.3021H77.8345V30.456H80.1196V24.5452H82.4855L88.4024 30.456H91.5038L84.4858 23.4189L91.5857 16.3021Z" fill="#FF4B5F"/>
<path d="M188.372 16.3018H185.273L179.314 22.2529H176.907V16.3018H174.622V30.4556H176.907V24.5448H179.314L185.19 30.4556H188.291L181.314 23.4185L188.372 16.3018ZM154.586 30.4545H157.118L150.792 16.3018H148.18L141.856 30.4556H144.386L145.773 27.3998H153.2L154.586 30.4556V30.4545ZM146.794 25.1472L149.487 19.1971L152.18 25.1472H146.793H146.794Z" fill="#003791"/>
<path d="M74.8969 26.3543C74.8969 25.7948 74.7809 25.2414 74.556 24.7291C74.3312 24.2168 74.0024 23.7568 73.5906 23.3781C74.3654 22.6142 74.8969 21.5687 74.8969 20.4031C74.8934 19.3128 74.4574 18.2685 73.6845 17.4995C72.9117 16.7305 71.8653 16.2997 70.7751 16.3018H62.3701V30.4949H70.7751C73.0603 30.4556 74.8969 28.6058 74.8969 26.3543ZM64.6956 18.5947H70.7347C71.7551 18.5947 72.5703 19.398 72.5703 20.4031C72.5703 21.4082 71.7551 22.2126 70.7347 22.2126H64.6956V18.5936V18.5947ZM70.7347 28.203H64.6956V24.5448H70.7751C71.7955 24.5448 72.6117 25.3884 72.6117 26.3543C72.5703 27.3583 71.7551 28.203 70.7347 28.203Z" fill="#FF4B5F"/>
<path d="M169.439 16.3421V22.2529H161.075V16.3421H158.749V30.4152H161.075V24.5437H169.439V30.4152H171.766V16.3421H169.439ZM141.04 26.3543C141.04 24.1017 139.163 22.2529 136.878 22.2529H130.839V18.5936H139.653V16.3018H128.513V30.4949H136.878C139.163 30.4556 141.04 28.6057 141.04 26.3543ZM136.878 28.203H130.839V24.5448H136.878C137.898 24.5448 138.714 25.3884 138.714 26.3543C138.714 27.3583 137.898 28.203 136.878 28.203Z" fill="#003791"/>
</g>
<defs>
<clipPath id="clip0_14657_100560">
<rect width="188" height="48" fill="white"/>
</clipPath>
</defs>
</svg>
