<svg width="32" height="32" viewBox="0 0 32 32" fill="none" xmlns="http://www.w3.org/2000/svg">
    <circle opacity="0.12" cx="16" cy="11.9993" r="9.33333" fill="white"/>
    <path fill-rule="evenodd" clip-rule="evenodd"
          d="M16 3.66602C11.3976 3.66602 7.66663 7.39698 7.66663 11.9993C7.66663 16.6017 11.3976 20.3327 16 20.3327C20.6023 20.3327 24.3333 16.6017 24.3333 11.9993C24.3333 7.39698 20.6023 3.66602 16 3.66602ZM5.66663 11.9993C5.66663 6.29241 10.293 1.66602 16 1.66602C21.7069 1.66602 26.3333 6.29241 26.3333 11.9993C26.3333 17.7063 21.7069 22.3327 16 22.3327C10.293 22.3327 5.66663 17.7063 5.66663 11.9993ZM24.9968 2.13044C25.2926 1.84047 25.7675 1.84519 26.0574 2.14098C28.547 4.6805 30.0833 8.16126 30.0833 11.9993C30.0833 19.5258 24.1793 25.6732 16.75 26.0631V28.5827H18.6666C19.0808 28.5827 19.4166 28.9185 19.4166 29.3327C19.4166 29.7469 19.0808 30.0827 18.6666 30.0827H16H13.3333C12.9191 30.0827 12.5833 29.7469 12.5833 29.3327C12.5833 28.9185 12.9191 28.5827 13.3333 28.5827H15.25V26.063C11.7096 25.8772 8.51464 24.3832 6.14159 22.0568C5.8458 21.7669 5.84108 21.292 6.13105 20.9962C6.42102 20.7004 6.89587 20.6957 7.19166 20.9857C9.46215 23.2115 12.5702 24.5827 16 24.5827C16.0007 24.5827 16.0015 24.5827 16.0023 24.5827C22.9508 24.5814 28.5833 18.9482 28.5833 11.9993C28.5833 8.56956 27.2121 5.46154 24.9863 3.19105C24.6963 2.89526 24.701 2.42041 24.9968 2.13044Z"
          fill="white"/>
</svg>
