<svg width="188" height="48" viewBox="0 0 188 48" fill="none" xmlns="http://www.w3.org/2000/svg">
<path d="M122.051 26.958C122.051 28.5188 122.051 30.0549 122.051 31.6529C125.342 31.6529 128.627 31.6529 131.918 31.6529C132.542 31.6038 133.122 31.3176 133.535 30.855C133.949 30.3925 134.162 29.79 134.131 29.1754C134.058 28.6315 133.787 28.1319 133.368 27.7694C132.863 27.2804 132.185 27.0028 131.476 26.9951C128.324 26.9951 125.171 26.9951 122.057 26.9951L122.051 26.958ZM122.051 17.3451V22.0462H129.963C130.575 22.0549 131.17 21.8534 131.646 21.4764C131.981 21.2275 132.241 20.8952 132.401 20.514C132.561 20.1328 132.614 19.7166 132.554 19.3085C132.439 18.8126 132.175 18.3621 131.796 18.0153C131.417 17.6685 130.941 17.4415 130.43 17.3637C129.799 17.3265 129.112 17.3637 128.45 17.3637L122.051 17.3451ZM114.592 10.2531H129.768C130.398 10.2531 131.029 10.2531 131.659 10.2965C134.029 10.5108 136.222 11.6212 137.775 13.3934C138.518 14.248 139.076 15.2428 139.414 16.3169C139.786 17.5314 139.885 18.811 139.703 20.0668C139.522 21.3225 139.063 22.5243 138.361 23.5885C139.132 24.1878 139.812 24.8929 140.379 25.682C141.121 26.7951 141.574 28.0699 141.698 29.3949C141.822 30.7198 141.614 32.0544 141.091 33.2819C140.273 35.285 138.727 36.9184 136.753 37.8654C135.52 38.439 134.171 38.7292 132.807 38.714H114.58C114.58 29.2167 114.58 19.7194 114.58 10.2221L114.592 10.2531ZM14 10.2531H21.5657V13.2633C21.5456 13.8215 21.5667 14.3804 21.6287 14.9357C21.8711 16.6745 22.7695 18.2603 24.146 19.379C25.5225 20.4977 27.2765 21.0675 29.0605 20.9756C30.8445 20.8836 32.5282 20.1366 33.7779 18.8825C35.0277 17.6285 35.7523 15.959 35.8081 14.2048C35.8081 12.8855 35.8081 11.5662 35.8081 10.2531H43.3738V13.35C43.3599 15.9005 42.6619 18.4022 41.35 20.6031C40.4516 22.0952 39.2927 23.4203 37.9265 24.5176C39.5236 25.7892 40.8318 27.3754 41.7668 29.1741C42.7018 30.9727 43.2428 32.9439 43.3549 34.9605C43.399 36.1993 43.3549 37.4999 43.3549 38.7635H35.7892V36.2364C35.8367 35.3397 35.7859 34.4405 35.6379 33.5545C35.397 32.4685 34.8986 31.4537 34.1832 30.5927C33.4678 29.7316 32.5556 29.0487 31.5209 28.5994C30.4433 28.149 29.2694 27.9661 28.1028 28.0668C26.9363 28.1674 25.8128 28.5485 24.8316 29.1764C23.8504 29.8044 23.0415 30.6599 22.4764 31.6675C21.9112 32.6751 21.6071 33.8039 21.5909 34.9543V38.7511H14.0252C14.0252 36.893 13.9054 34.9976 14.2648 33.1766C14.8939 29.769 16.7406 26.694 19.4725 24.5052C17.8489 23.2133 16.5236 21.5969 15.5844 19.7634C14.6453 17.9299 14.1138 15.9211 14.0252 13.8703C14.0252 12.6687 14.0252 11.4609 14.0252 10.2531H14ZM158.379 17.5371C156.788 17.7425 155.314 18.4679 154.194 19.5966C153.074 20.7253 152.374 22.1915 152.205 23.759C152.037 25.3264 152.411 26.9039 153.266 28.2373C154.122 29.5706 155.41 30.5822 156.922 31.109C158.434 31.6358 160.082 31.6472 161.602 31.1413C163.121 30.6355 164.423 29.6418 165.298 28.3204C166.173 26.999 166.569 25.4269 166.423 23.8572C166.277 22.2876 165.598 20.8119 164.494 19.6678C163.719 18.8623 162.761 18.2492 161.698 17.8787C160.634 17.5083 159.497 17.3912 158.379 17.5371ZM156.897 10.2159C158.875 9.89634 160.9 9.97732 162.845 10.4539C164.791 10.9306 166.616 11.7928 168.21 12.9876C169.805 14.1824 171.133 15.6847 172.115 17.4022C173.097 19.1197 173.711 21.0162 173.92 22.9753C173.986 23.7084 174.011 24.4445 173.995 25.1803C173.995 29.7019 173.995 34.2255 173.995 38.7511H166.6C166.6 38.5034 166.6 38.2556 166.6 38.0141C168.264 37.0111 169.63 35.5946 170.559 33.9075C168.506 36.281 165.725 37.9368 162.634 38.6269C159.542 39.317 156.306 39.0042 153.41 37.7353C151.106 36.7181 149.106 35.1368 147.601 33.1427C146.097 31.1485 145.139 28.8084 144.819 26.3464C144.499 23.8844 144.827 21.3828 145.773 19.0812C146.719 16.7796 148.25 14.7551 150.22 13.2014C152.171 11.6621 154.492 10.6406 156.96 10.2345L156.897 10.2159ZM92.9353 10.2717C94.6784 9.86425 96.5031 9.94796 98.1998 10.5132C100.178 11.2233 101.934 12.4272 103.294 14.0066C104.924 15.8912 106.204 18.0421 107.077 20.3615C108.192 23.214 108.954 26.1877 109.347 29.2187C109.719 32.3907 109.876 35.5834 109.819 38.7759H102.254C102.33 35.2523 102.092 31.7289 101.541 28.2463C101.15 26.0123 100.457 23.8397 99.4797 21.7861C99.0022 20.7848 98.3894 19.8514 97.6576 19.0113C97.1748 18.4429 96.5549 18.0022 95.8544 17.7291C95.3161 17.5487 94.7282 17.5753 94.2089 17.8034C93.2638 18.2899 92.4674 19.0146 91.9014 19.9032C90.7053 21.7207 89.8213 23.7191 89.2849 25.8183C88.1122 30.0301 88.024 34.434 88.024 38.7697H80.4583C80.4182 35.6184 80.5804 32.4677 80.9437 29.3364C81.3307 26.1775 82.1208 23.0789 83.2954 20.1137C84.2345 17.7025 85.6292 15.4875 87.4061 13.5854C88.8883 11.9814 90.814 10.8364 92.948 10.2903L92.9353 10.2717ZM60.1507 17.5371C58.9587 17.6877 57.8257 18.1354 56.8596 18.8378C55.4653 19.8461 54.4933 21.3195 54.1259 22.9816C53.7584 24.6438 54.0208 26.3805 54.8637 27.8662C55.7067 29.3518 57.0723 30.4844 58.7046 31.0514C60.3369 31.6185 62.1237 31.5811 63.7299 30.9463C65.3361 30.3115 66.6515 29.1228 67.4293 27.6033C68.2071 26.0837 68.3939 24.3375 67.9548 22.6923C67.5156 21.047 66.4806 19.6156 65.0439 18.6665C63.6071 17.7175 61.8673 17.3159 60.1507 17.5371ZM59.2869 10.1045C61.3443 9.86016 63.4311 10.0455 65.4105 10.6485C67.3899 11.2514 69.2174 12.2583 70.7732 13.6031C72.3291 14.948 73.5782 16.6006 74.4389 18.4527C75.2996 20.3047 75.7523 22.3145 75.7675 24.3504V38.7202H68.309C68.309 38.4662 68.309 38.2122 68.309 37.9583C70.0015 36.9591 71.3786 35.5182 72.2873 33.796C70.7372 35.5861 68.7661 36.9776 66.5448 37.8501C64.3236 38.7226 61.9192 39.0497 59.5402 38.8031C57.1612 38.5564 54.8793 37.7434 52.8924 36.4345C50.9055 35.1257 49.2735 33.3605 48.1379 31.292C47.0024 29.2235 46.3975 26.9141 46.3757 24.564C46.354 22.214 46.916 19.8941 48.0131 17.8057C49.1101 15.7172 50.7092 13.9232 52.6715 12.579C54.6338 11.2349 56.9003 10.3812 59.2744 10.0921L59.2869 10.1045Z" fill="#282A2D"/>
</svg>
