<svg width="147" height="24" viewBox="0 0 147 24" fill="none" xmlns="http://www.w3.org/2000/svg">
<path fill-rule="evenodd" clip-rule="evenodd" d="M19.0388 16.8686C19.0388 13.3754 22.7897 13.2354 27.2638 13.2354H27.8792V9.49257H27.048C22.61 9.49257 19.7948 9.17714 19.7948 6.77714C19.7948 4.69543 21.5262 4.05771 23.8012 4.05771C26.7849 4.05771 28.3978 4.68171 29.6462 5.54V1.02343C28.42 0.458857 26.5084 0 23.8018 0C18.7483 0 14.7455 1.90629 14.7455 6.56343C14.7455 8.43429 15.7173 10.8 18.4602 11.2937C15.6094 11.7531 13.9143 14.2583 13.9143 16.8691C13.9137 22.0937 18.3517 24 23.8012 24C27.6955 24 30.3304 23.4709 32.0617 22.304V17.5669C30.8274 18.8491 27.9872 19.9423 24.8092 19.9423C22.2641 19.9423 19.0388 19.164 19.0388 16.8691V16.8686ZM75.6175 0.529714H50.2542V13.9429L34.6967 0H34.4814V23.4709H39.5132V10.5509L55.0672 24H55.286V4.58686H62.8658V23.4709H67.8942V4.58686H75.6175V0.529143V0.529714ZM5.103 0.6H0V23.4H13.3088V19.0154H5.103V0.6ZM123.237 9.50857C123.237 3.75543 119.498 0.6 113.273 0.6H105.863V23.4H110.901V18.42H113.273C113.958 18.42 114.64 18.3857 115.253 18.2771L119.892 23.4H125.827L119.748 16.4909C121.977 14.84 123.236 12.3154 123.236 9.508L123.237 9.50857ZM112.771 14.384H110.902V4.63257H112.807C116.406 4.63257 118.203 6.42286 118.203 9.508C118.203 12.2451 116.334 14.384 112.771 14.384ZM100.133 18.6C99.7732 18.5985 99.4164 18.6669 99.0834 18.8012C98.7505 18.9354 98.448 19.133 98.1934 19.3825C97.9388 19.6319 97.7372 19.9283 97.6002 20.2544C97.4632 20.5806 97.3935 20.9301 97.3951 21.2829C97.3951 22.788 98.6195 24 100.133 24C101.615 24 102.84 22.788 102.84 21.2829C102.84 19.7846 101.615 18.6 100.133 18.6ZM141.927 0.6V12.6526C141.927 17.6834 139.953 19.9543 136.725 19.9543C133.391 19.9543 131.508 17.6834 131.508 12.6526V0.6H126.432V11.5594C126.432 19.1966 129.223 24 136.725 24C144.23 24 147 19.0914 147 11.5594V0.6H141.927ZM83.1075 0H82.8917L70.7782 23.4H76.1839L77.9502 19.5989H88.2974L90.1752 23.4H95.5809L83.1069 0H83.1075ZM79.7557 15.728L82.9996 8.832L86.3876 15.728H79.7551H79.7557Z" fill="white"/>
</svg>
