<svg width="32" height="32" viewBox="0 0 32 32" fill="none" xmlns="http://www.w3.org/2000/svg">
    <path opacity="0.12"
          d="M5.33325 14.666H26.6666V24.5327C26.6666 26.2128 26.6666 27.0529 26.3396 27.6947C26.052 28.2591 25.593 28.7181 25.0286 29.0057C24.3868 29.3327 23.5467 29.3327 21.8666 29.3327H10.1333C8.4531 29.3327 7.61302 29.3327 6.97128 29.0057C6.40679 28.7181 5.94785 28.2591 5.66023 27.6947C5.33325 27.0529 5.33325 26.2128 5.33325 24.5327V14.666Z"
          fill="white"/>
    <path fill-rule="evenodd" clip-rule="evenodd"
          d="M20.6667 3.41602C22.0935 3.41602 23.2501 4.57261 23.2501 5.99935C23.2501 7.42608 22.0935 8.58268 20.6667 8.58268H17.0081L17.9829 5.33327C18.3243 4.19531 19.3717 3.41602 20.5598 3.41602H20.6667ZM24.7501 5.99935C24.7501 6.97945 24.4048 7.8789 23.8292 8.58268H26.6667C28.5537 8.58268 30.0834 10.1124 30.0834 11.9993C30.0834 13.6287 28.9429 14.9916 27.4167 15.3334V24.5327V24.5648C27.4168 25.3776 27.4168 26.0332 27.3734 26.5641C27.3287 27.1108 27.2344 27.5909 27.008 28.0351C26.6485 28.7408 26.0748 29.3144 25.3692 29.674C24.925 29.9003 24.4449 29.9947 23.8982 30.0393C23.3673 30.0827 22.7117 30.0827 21.8989 30.0827H21.8667L16.0001 30.0827L10.1334 30.0827H10.1013C9.28846 30.0827 8.63285 30.0827 8.10195 30.0393C7.55531 29.9947 7.07517 29.9003 6.63095 29.674C5.92534 29.3144 5.35167 28.7408 4.99214 28.0351C4.7658 27.5909 4.67144 27.1108 4.62678 26.5642C4.5834 26.0332 4.58341 25.3776 4.58341 24.5648L4.58341 24.5327V15.3334C3.05722 14.9916 1.91675 13.6287 1.91675 11.9993C1.91675 10.1124 3.44644 8.58268 5.33341 8.58268H8.17098C7.59539 7.8789 7.25008 6.97945 7.25008 5.99935C7.25008 3.74419 9.07825 1.91602 11.3334 1.91602H11.4404C13.2909 1.91602 14.9222 3.12981 15.454 4.90225L16.0001 6.72261L16.5462 4.90225C17.0779 3.12981 18.7093 1.91602 20.5598 1.91602H20.6667C22.9219 1.91602 24.7501 3.74419 24.7501 5.99935ZM5.33341 13.916H15.2501V10.0827H11.3334H5.33341C4.27487 10.0827 3.41675 10.9408 3.41675 11.9993C3.41675 13.0579 4.27487 13.916 5.33341 13.916ZM16.7501 13.916H26.6667C27.7253 13.916 28.5834 13.0579 28.5834 11.9993C28.5834 10.9408 27.7253 10.0827 26.6667 10.0827H20.6667H16.7501V13.916ZM6.08342 15.416V24.5327C6.08342 25.3851 6.084 25.9794 6.1218 26.442C6.15888 26.8959 6.22801 27.1566 6.32865 27.3542C6.54436 27.7775 6.88857 28.1217 7.31194 28.3374C7.50945 28.4381 7.77022 28.5072 8.2241 28.5443C8.68673 28.5821 9.28096 28.5827 10.1334 28.5827H15.2501V15.416H6.08342ZM16.7501 15.416V28.5827H21.8667C22.7192 28.5827 23.3134 28.5821 23.7761 28.5443C24.2299 28.5072 24.4907 28.4381 24.6882 28.3374C25.1116 28.1217 25.4558 27.7775 25.6715 27.3542C25.7722 27.1566 25.8413 26.8959 25.8784 26.442C25.9162 25.9794 25.9167 25.3851 25.9167 24.5327V15.416H16.7501ZM14.9921 8.58268L14.0172 5.33327C13.6758 4.19531 12.6284 3.41602 11.4404 3.41602H11.3334C9.90668 3.41602 8.75008 4.57261 8.75008 5.99935C8.75008 7.42608 9.90668 8.58268 11.3334 8.58268H14.9921Z"
          fill="white"/>
</svg>
