<svg width="102" height="23" viewBox="0 0 102 23" fill="none" xmlns="http://www.w3.org/2000/svg">
<path d="M36.4043 19.056C32.1575 19.056 29.0899 15.6018 29.0899 11.355C29.0899 7.10815 32.1124 3.46063 36.5332 3.46063C38.4923 3.46063 39.8843 3.91818 41.0958 4.67218V8.40347H44.7498V2.96442L44.0474 2.41664C42.0367 0.83777 38.9692 0 36.4043 0C30.1404 0 25.0493 5.09106 25.0493 11.355C25.0493 17.6189 30.1404 22.71 36.4043 22.71C40.3161 22.71 43.2611 21.0796 45.4329 18.244L42.5329 16.0272C41.0572 17.954 38.8274 19.056 36.4043 19.056ZM98.2446 18.8627L98.1157 13.6299V0.863547H90.4985V4.51751H94.2684V13.1723C94.2684 16.9036 91.4136 19.5394 88.5394 19.5394C85.6652 19.5394 84.1636 17.5481 84.1636 13.8168V0.863547H77.049V4.51751H80.3163V14.4612C80.3163 19.52 83.1519 23 88.2172 23C91.1236 23 93.3404 21.3953 94.6615 18.9014H94.7195L95.2415 22.3813H101.093V18.8563H98.2446V18.8627ZM12.341 16.5621H12.2572L6.76016 0.534884H0V4.18885H3.80219L10.3497 22.4587H13.8296V22.4522L20.6542 4.18885H24.2051V0.534884H17.8638L12.341 16.5621ZM48.32 22.4973H52.0771V18.7403H48.32V22.4973ZM62.8456 5.09751H62.8005L62.5621 0.863547H55.847V4.19529H59.4237V18.8563H55.847V22.3813H72.4349V18.9207H63.2065V10.0726C63.6254 6.86971 66.0227 4.13085 69.3029 4.13085H69.3609L69.2964 7.40459H72.9504V0.792659H70.0698C66.7574 0.792659 64.3021 2.5842 62.8456 5.09751Z" fill="white"/>
</svg>
