<svg width="26" height="16" viewBox="0 0 26 16" fill="none" xmlns="http://www.w3.org/2000/svg">
<path d="M16.3443 1.70068H9.38647V14.205H16.3443V1.70068Z" fill="#FF5F00"/>
<path d="M9.8282 7.95418C9.82692 6.74975 10.0997 5.56083 10.6259 4.47743C11.1521 3.39403 11.9179 2.44457 12.8654 1.70093C11.6923 0.779008 10.2835 0.205718 8.79997 0.0465839C7.31648 -0.11255 5.81813 0.148892 4.47619 0.801031C3.13425 1.45317 2.00285 2.46969 1.21131 3.73442C0.419761 4.99915 0 6.46107 0 7.95307C0 9.44508 0.419761 10.907 1.21131 12.1717C2.00285 13.4365 3.13425 14.453 4.47619 15.1051C5.81813 15.7573 7.31648 16.0187 8.79997 15.8596C10.2835 15.7004 11.6923 15.1271 12.8654 14.2052C11.9182 13.4618 11.1526 12.5127 10.6264 11.4297C10.1002 10.3467 9.82725 9.15823 9.8282 7.95418Z" fill="#EB001B"/>
<path d="M25.7319 7.95388C25.7319 9.446 25.312 10.908 24.5203 12.1728C23.7286 13.4375 22.5971 14.4541 21.2549 15.1061C19.9128 15.7581 18.4143 16.0194 16.9308 15.8601C15.4472 15.7007 14.0384 15.1271 12.8654 14.2049C13.8121 13.4608 14.5776 12.5115 15.1039 11.4284C15.6302 10.3454 15.9037 9.15694 15.9037 7.95277C15.9037 6.74861 15.6302 5.56017 15.1039 4.47712C14.5776 3.39407 13.8121 2.4447 12.8654 1.70063C14.0384 0.778419 15.4472 0.20485 16.9308 0.0454872C18.4143 -0.113875 19.9128 0.147399 21.2549 0.799445C22.5971 1.45149 23.7286 2.468 24.5203 3.73277C25.312 4.99754 25.7319 6.45955 25.7319 7.95167V7.95388Z" fill="#F79E1B"/>
<path d="M24.972 12.8796V12.6233H25.0758V12.5703H24.813V12.6233H24.9256V12.8796H24.972ZM25.4823 12.8796V12.5703H25.4028L25.31 12.7912L25.2172 12.5703H25.1465V12.8796H25.204V12.6476L25.2901 12.8486H25.3497L25.4359 12.6476V12.8818L25.4823 12.8796Z" fill="#F79E1B"/>
</svg>
