<svg width="188" height="59" viewBox="0 0 188 59" fill="none" xmlns="http://www.w3.org/2000/svg">
<path d="M71.6171 17.2626H79.0064V19.6787H75.4913V36.6553H71.6171V17.2626ZM83.3874 29.3751L84.0514 19.6787H84.2737L84.9377 29.3751H83.3874ZM79.097 36.6553H82.8903L83.249 31.505H85.0758L85.4363 36.6553H89.2279L87.2075 17.2626H81.1174L79.097 36.6553ZM94.7764 29.8679V33.5238C94.7764 34.0166 95.1577 34.1596 95.38 34.1596C95.7453 34.1596 95.9995 33.8576 95.9995 33.5238V29.0097C95.9995 28.4055 95.8882 27.738 94.4428 27.738H92.8702V25.6081H94.5063C95.6024 25.6081 95.9995 25.3537 95.9995 24.1614V20.3146C95.9995 19.9807 95.7453 19.6787 95.3798 19.6787C95.1577 19.6787 94.7764 19.8058 94.7764 20.3146V23.4778H90.9005V20.7279C90.9005 19.3767 91.0593 17.2626 93.7754 17.2626H96.9841C99.7003 17.2626 99.8751 19.3767 99.8751 20.7279V23.8274C99.8751 25.9416 98.3979 26.5139 97.2383 26.4661V26.6569C99.8433 26.5934 99.8751 28.596 99.8751 29.2797V33.1901C99.8751 34.557 99.7003 36.6553 96.9841 36.6553H93.7754C91.0593 36.6553 90.9005 34.5569 90.9005 33.1899V29.8679H94.7764ZM102.417 17.2626H111.391V36.6553H107.516V19.6787H106.293V36.6553H102.417V17.2626ZM117.809 27.9286V19.6789H118.317C118.73 19.6789 119.032 20.0284 119.032 20.6485V26.9589C119.032 27.579 118.73 27.9285 118.317 27.9285L117.809 27.9286ZM113.933 36.6553H117.809V30.0586H120.032C122.733 30.0586 122.907 27.9603 122.907 26.5932V20.7279C122.907 19.3767 122.733 17.2626 120.032 17.2626H113.933V36.6553ZM130.548 33.5238C130.548 33.8576 130.294 34.1596 129.928 34.1596C129.706 34.1596 129.325 34.0166 129.325 33.5238V20.3146C129.325 19.8058 129.706 19.6787 129.928 19.6787C130.294 19.6787 130.548 19.9807 130.548 20.3146V33.5238ZM125.449 33.1901C125.449 34.557 125.624 36.6553 128.324 36.6553H131.549C134.249 36.6553 134.424 34.5569 134.424 33.1899V20.7279C134.424 19.3767 134.249 17.2626 131.549 17.2626H128.324C125.624 17.2626 125.449 19.3767 125.449 20.7279V33.1901ZM147.036 17.2626H152.087V36.6553H148.211V24.4951H148.068L146.067 36.6553H142.969L140.984 24.4951H140.841V36.6553H136.965V17.2626H142L144.526 30.901L147.036 17.2626ZM66.5944 10.1097C65.408 4.91181 62.4343 0.683651 62.0245 0C61.3764 0.969548 59.0049 4.70522 57.7993 8.83796C56.4825 13.4635 56.2887 17.5646 56.7432 21.5862C57.1942 25.6237 58.8984 29.7725 58.8984 29.7725C59.804 31.9343 61.1604 34.2708 62.0436 35.4154C63.3381 33.7305 66.3133 28.7074 67.2409 22.1585C67.7572 18.5024 67.7794 15.3076 66.5944 10.1097ZM62.0245 34.112C61.4416 33.0152 60.5361 30.9327 60.4503 27.69C60.4281 24.5746 61.6782 21.8882 62.0436 21.3319C62.3692 21.8883 63.4461 24.2248 63.5748 27.4199C63.6621 30.5355 62.6265 32.9991 62.0245 34.112ZM66.2498 18.9315C66.2053 20.9186 65.9686 23.0168 65.6668 24.2726C65.7748 22.1108 65.516 19.0747 65.0202 16.6904C64.5247 14.3219 63.1221 10.3481 62.0024 8.52003C60.9683 10.2686 59.6942 13.702 59.0272 16.6745C58.3568 19.6469 58.3378 23.2553 58.3378 24.3362C58.1598 23.43 57.7151 20.1716 57.8406 16.913C57.9455 14.2267 58.5744 11.445 58.9192 10.1732C60.2343 5.92915 61.7227 3.21099 62.0022 2.78171C62.2819 3.21099 64.1561 6.56501 65.1283 10.0778C66.0957 13.5908 66.2911 16.9606 66.2498 18.9317" fill="#0079C2"/>
<path d="M64.0363 36.623H55.0156V42.6793C55.0236 42.6793 55.03 42.6633 55.0379 42.6633C57.1632 40.5334 60.6102 40.5334 62.7371 42.6633C64.8624 44.7775 64.8624 48.2268 62.7371 50.3569C62.7275 50.3726 62.7179 50.3726 62.7085 50.3885C62.6973 50.3885 62.6862 50.4045 62.6766 50.4204C60.5561 52.5186 57.7859 53.5677 55.0156 53.5677C52.2328 53.5677 49.4498 52.5186 47.3277 50.3885C43.5853 46.653 43.1421 40.8512 45.9949 36.623C46.3866 36.0413 46.8329 35.4984 47.3277 35.0017C49.4498 32.8718 52.2328 31.8226 55.0156 31.8226V17.2622C44.3224 17.2622 35.6543 25.9253 35.6543 36.623C35.6543 47.3208 44.3224 55.9998 55.0156 55.9998C60.591 55.9998 65.6137 53.6312 69.1463 49.864V36.623H64.0363ZM152.086 42.3206H71.6163V55.9998H152.086V42.3206ZM145.128 51.8701H146.149V49.8053H145.128V51.8701ZM145.128 48.2567H146.673L147.707 48.773L147.962 49.2892L148.217 50.3216V50.8377C148.191 54.5359 145.813 53.1821 143.314 53.4188V44.9015H145.128V48.2567ZM131.708 44.9015V46.4501H130.419V53.4188H128.363V46.4501H127.074V44.9015H131.708ZM112.888 51.0958H113.144L113.654 50.8377V47.2243H112.888V51.0958ZM110.82 47.2245H110.04V50.8377L110.564 51.0958H110.82V47.2245ZM112.888 44.9015V45.6758H114.178L114.944 46.1919L115.467 46.7082L115.723 47.7406V50.5797L115.468 51.6121L114.944 52.1283L114.178 52.6444H112.888V53.4186H110.82V52.6444H109.53L108.751 52.1283L108.241 51.6121L107.985 50.5797V47.7406L108.24 46.7082L108.751 46.1919L109.53 45.6758H110.82V44.9015H112.888ZM96.1184 44.9015V46.4501H94.571V48.2567H96.1184V49.8053H94.571V51.8701H96.3764V53.4186H92.5076V44.9015H96.1184ZM77.5485 48.2567H78.5802V44.9015H80.3856V53.4188H78.5802V49.8053H77.5485V53.4188H75.4851V44.9015H77.5485V48.2567Z" fill="#0079C2"/>
</svg>
