<svg width="188" height="48" viewBox="0 0 188 48" fill="none" xmlns="http://www.w3.org/2000/svg">
<path fill-rule="evenodd" clip-rule="evenodd" d="M0.695749 17.5545V28.7932H2.51751H4.33927V24.4945V20.1958L6.38876 20.1728C8.64957 20.1475 8.91844 20.1159 9.94918 19.7555C12.2879 18.9374 13.8431 17.0808 14.2768 14.5888C14.3814 13.9882 14.383 12.7665 14.28 12.1372C13.8009 9.20812 11.7227 7.10001 8.69543 6.47219C8.13261 6.35553 8.0149 6.35171 4.40625 6.33402L0.695749 6.31579V17.5545ZM8.5116 10.4271C8.98611 10.5676 9.36247 10.7774 9.70882 11.0948C10.1173 11.469 10.3505 11.8255 10.5367 12.3604C10.663 12.7234 10.6814 12.8574 10.6804 13.4138C10.6795 13.9498 10.658 14.1156 10.5449 14.4549C10.2897 15.2214 9.80456 15.7711 9.05491 16.143C8.44424 16.4461 8.1803 16.4739 6.08067 16.4568L4.2589 16.4418L4.24497 13.4403C4.23736 11.7895 4.24331 10.4071 4.25826 10.3684C4.30129 10.257 8.1145 10.3096 8.5116 10.4271ZM112.712 12.4857C110.46 12.741 108.488 13.8106 107.238 15.4542C106.851 15.962 106.277 17.0686 106.066 17.7113C105.45 19.5867 105.451 21.8991 106.068 23.74C106.476 24.9584 107.041 25.8645 107.962 26.7777C109.114 27.9201 110.514 28.6678 112.136 29.0076C112.884 29.1641 114.155 29.2023 114.848 29.089C116.103 28.8842 117.29 28.3153 118.194 27.4861L118.572 27.139L118.586 27.9262L118.601 28.7135H120.262H121.923V20.798V12.8825H120.236H118.548L118.533 13.6427L118.518 14.403L118.265 14.182C117.409 13.4343 116.053 12.7883 114.871 12.5656C114.313 12.4604 113.274 12.422 112.712 12.4857ZM22.6373 12.645C21.1496 12.8122 19.9052 13.2889 18.7981 14.1156C16.3996 15.9069 15.1823 19.1253 15.6478 22.4448C16.2017 26.3944 19.1375 29.019 23.276 29.2643C23.6568 29.2869 24.239 29.286 24.5698 29.2622C26.3073 29.1377 28.1408 28.2821 29.4629 26.9787C30.0936 26.357 30.0827 26.5307 29.5751 25.1956C29.3333 24.5592 29.1019 23.9579 29.0609 23.8592L28.9865 23.6799L28.5806 24.0622C27.7782 24.8178 26.7674 25.3362 25.5575 25.6124C24.8922 25.7642 23.6891 25.8019 23.0486 25.6909C21.4296 25.4104 20.1796 24.5564 19.5096 23.273C19.3441 22.956 19.0741 22.2415 19.0741 22.1205C19.0741 22.109 21.7833 22.0995 25.0946 22.0995H31.115L31.1488 21.8206C31.2017 21.3842 31.1893 20.1509 31.1271 19.6545C30.8733 17.6294 30.1147 16.0337 28.7775 14.7122C27.6825 13.6303 26.5482 13.0303 25.0547 12.7433C24.4331 12.6238 23.253 12.5758 22.6373 12.645ZM60.3633 12.645C58.3194 12.8771 56.5936 13.7631 55.3514 15.2181C53.5365 17.3437 52.8579 20.2669 53.5078 23.1599C53.8584 24.721 54.5014 25.8997 55.5824 26.963C57.0195 28.3767 58.8192 29.139 61.0194 29.2663C63.0222 29.3821 64.6337 28.9183 66.2918 27.7487C66.7741 27.4085 67.7259 26.5037 67.7259 26.3854C67.7259 26.3167 66.7714 23.7476 66.7273 23.6976C66.7165 23.6854 66.533 23.8425 66.3194 24.0467C65.3965 24.929 64.1224 25.516 62.6954 25.7164C62.0176 25.8115 60.9079 25.7526 60.2668 25.5875C58.585 25.1544 57.1968 23.8207 56.8542 22.3089L56.8067 22.0995H62.8247H68.8426L68.8806 21.7477C68.9483 21.1208 68.8714 19.5265 68.7451 18.9387C68.3736 17.2099 67.6279 15.792 66.5061 14.6813C65.4811 13.6665 64.1304 12.969 62.7161 12.7242C62.119 12.6209 60.9284 12.5808 60.3633 12.645ZM78.8172 12.6252C76.0271 12.9877 73.7005 14.6036 72.4792 17.0273C71.9273 18.1225 71.6515 19.2167 71.6007 20.5119C71.4981 23.1318 72.323 25.2596 74.0951 26.9459C75.0042 27.8111 76.0521 28.4315 77.3058 28.8467C78.247 29.1585 78.7888 29.241 79.8889 29.2405C80.9715 29.2399 81.6559 29.1313 82.5801 28.8138C83.7096 28.4256 85.031 27.6192 85.7771 26.8627L86.0661 26.5697L85.5638 25.158C85.2875 24.3816 85.0346 23.7464 85.0018 23.7464C84.9689 23.7464 84.8962 23.7974 84.84 23.8597C84.5518 24.1798 83.6789 24.711 82.9357 25.0188C81.5539 25.591 80.1298 25.696 78.6833 25.3326C77.4252 25.0165 76.3112 24.2256 75.7093 23.2208C75.5859 23.015 75.4098 22.6246 75.318 22.3535C75.1577 21.8801 75.151 21.8246 75.149 20.9574C75.1471 20.1548 75.1609 20.0101 75.2725 19.6577C75.53 18.8446 75.947 18.1919 76.5835 17.6055C77.2258 17.0138 77.9998 16.618 78.9316 16.4046C79.6732 16.2349 80.9644 16.2365 81.6035 16.4081C82.6341 16.6847 83.697 17.2315 84.487 17.8915C84.6448 18.0233 84.7911 18.1086 84.8151 18.0825C84.8389 18.0567 85.0657 17.4163 85.3191 16.6595L85.7799 15.2834L85.5864 15.0221C85.0444 14.29 83.6003 13.3579 82.4072 12.9699C81.5844 12.7024 81.1394 12.636 80.0496 12.618C79.4749 12.6086 78.9204 12.6118 78.8172 12.6252ZM95.9364 12.6239C93.9555 12.9146 92.4051 13.6625 91.1138 14.9506C89.9628 16.0986 89.2674 17.3815 88.9088 19.0184C88.7429 19.7759 88.6806 21.222 88.7793 22.0292C89.1615 25.1549 91.0672 27.5807 94.0319 28.7153C97.0381 29.8658 100.476 29.1641 102.836 26.9187L103.198 26.5739L102.989 25.9969C102.875 25.6795 102.654 25.0612 102.498 24.6229C102.342 24.1847 102.197 23.8058 102.176 23.7811C102.154 23.7564 101.995 23.8501 101.823 23.9895C100.64 24.9448 98.9551 25.5524 97.4903 25.5521C95.8312 25.5517 94.1787 24.8939 93.3218 23.8926C92.5622 23.0051 92.2449 22.1133 92.2488 20.8777C92.2507 20.2587 92.2705 20.0965 92.3932 19.6927C92.8447 18.2065 93.9233 17.1007 95.4134 16.5963C97.5137 15.8852 99.5812 16.309 101.58 17.8606C101.767 18.0055 101.931 18.1133 101.944 18.1003C101.992 18.0524 102.875 15.3785 102.875 15.2801C102.875 15.1228 101.939 14.233 101.429 13.905C100.53 13.3279 99.6718 12.9657 98.6691 12.7409C98.2946 12.6569 97.9536 12.6291 97.142 12.6166C96.5674 12.6076 96.0249 12.6109 95.9364 12.6239ZM151.768 12.6715C149.178 13.0843 146.936 14.6904 145.768 16.9683C144.543 19.3586 144.535 22.429 145.747 24.8242C146.169 25.6587 146.888 26.5706 147.603 27.1781C150.667 29.7829 154.929 29.9604 158.156 27.6179C158.547 27.3336 159.296 26.6185 159.296 26.5289C159.296 26.4517 158.353 23.8026 158.31 23.7605C158.295 23.7453 158.167 23.8285 158.026 23.9452C157.4 24.4632 156.411 24.9871 155.555 25.2547C153.26 25.9718 150.636 25.3314 149.335 23.7363C148.358 22.5397 148.09 20.7358 148.673 19.284C149.137 18.1285 150.121 17.1542 151.293 16.6903C152.316 16.2853 153.618 16.1506 154.581 16.35C155.594 16.5596 156.63 17.043 157.566 17.7429C157.85 17.9549 158.074 18.0885 158.094 18.0571C158.15 17.9671 159.028 15.3344 159.028 15.2562C159.028 15.1261 158.048 14.2122 157.582 13.9083C156.729 13.3518 155.754 12.9444 154.742 12.7217C154.177 12.5973 152.42 12.5677 151.768 12.6715ZM34.827 20.8511V28.7932H36.5684H38.3098V25.6323V22.4714H42.1409H45.9719V25.6323V28.7932H47.6865H49.4011V20.8511V12.9091H47.6869H45.9728L45.959 15.8442L45.9451 18.7793H42.1409H38.3366L38.3228 15.8442L38.3089 12.9091H36.568H34.827V20.8511ZM126.915 12.9445C126.896 12.964 126.88 16.5379 126.88 20.8866V28.7932H128.621H130.362V25.6323V22.4714H134.193H138.025V25.6323V28.7932H139.766H141.508L141.494 20.8644L141.481 12.9357L139.753 12.9216L138.025 12.9076L138.012 15.8435L137.998 18.7793L134.18 18.793L130.362 18.8066V15.8579V12.9091H128.657C127.719 12.9091 126.935 12.925 126.915 12.9445ZM114.825 16.2049C116.124 16.3627 117.251 16.8648 118.163 17.6907L118.467 17.9666V20.7793V23.5921L118.213 23.8436C117.488 24.56 116.412 25.0985 115.256 25.3233C114.637 25.4438 113.448 25.4402 112.868 25.3162C111.928 25.1151 111.188 24.7384 110.53 24.1271C109.57 23.2344 109.083 22.1142 109.085 20.8052C109.086 20.1316 109.179 19.6259 109.41 19.032C110.181 17.0553 112.38 15.9076 114.825 16.2049ZM24.4754 16.3334C25.9012 16.6308 27.0083 17.5185 27.522 18.7762C27.6167 19.0083 27.6823 19.2175 27.6675 19.2411C27.6529 19.2646 25.7226 19.284 23.3783 19.284H19.1158L19.1505 19.1003C19.2414 18.6204 19.6988 17.8757 20.1858 17.4152C20.8807 16.758 21.7544 16.3754 22.8784 16.236C23.192 16.1971 24.082 16.2514 24.4754 16.3334ZM61.7516 16.2612C62.3581 16.3342 63.0949 16.5658 63.5466 16.8254C64.0175 17.0961 64.7638 17.837 65.0116 18.2799C65.2257 18.6625 65.4315 19.2036 65.3818 19.253C65.3645 19.27 63.4346 19.284 61.093 19.284H56.8355L56.8699 19.1113C56.8888 19.0163 56.985 18.7713 57.0835 18.5668C57.7743 17.1329 59.2316 16.268 61.055 16.2099C61.1729 16.2062 61.4864 16.2292 61.7516 16.2612ZM162.672 26.5885V28.7932H164.896H167.119V26.5885V24.3839H164.896H162.672V26.5885ZM4.14601 38.1476C3.76783 38.2104 3.02696 38.4471 2.70505 38.6081C1.92356 38.9988 1.10854 39.7461 0.687712 40.4576C0.388728 40.9631 0.142308 41.6353 0.0516484 42.1928C-0.0536388 42.8398 0.00771173 43.9035 0.184208 44.4913C0.464224 45.4238 1.07237 46.3435 1.7812 46.9064C2.25807 47.2852 3.07181 47.688 3.68575 47.8493C4.36553 48.028 5.55637 48.0514 6.26734 47.9C7.41773 47.6551 8.38327 47.083 8.84176 46.3746L9.01011 46.1145L8.84316 45.5818C8.75137 45.2888 8.65685 45.0491 8.63317 45.0491C8.60949 45.0491 8.51502 45.1417 8.42324 45.2549C8.04747 45.7186 7.17035 46.2353 6.37536 46.4614C5.82857 46.6169 4.46042 46.6055 3.88625 46.4408C2.88583 46.1536 2.12905 45.5558 1.72076 44.7303C1.4124 44.1069 1.3219 43.6406 1.35464 42.8444C1.38529 42.1005 1.50825 41.6438 1.81972 41.1179C2.04005 40.7458 2.50867 40.269 2.88599 40.0329C3.69244 39.5284 5.0645 39.3321 6.08677 39.5751C6.8928 39.7667 7.49762 40.1019 8.12468 40.7043C8.33531 40.9066 8.51894 41.0526 8.53271 41.0287C8.54653 41.0047 8.63671 40.7481 8.7331 40.4583L8.90847 39.9315L8.80908 39.7486C8.68113 39.513 8.13299 39.0173 7.74329 38.7849C7.3163 38.5301 6.57903 38.2664 6.02666 38.171C5.52637 38.0844 4.59652 38.0729 4.14601 38.1476ZM49.528 38.1964C47.731 38.599 46.3758 39.8584 45.8287 41.6342C45.6971 42.0614 45.6849 42.1768 45.6841 43.0038C45.6832 44.0565 45.7631 44.4375 46.1522 45.235C46.658 46.2721 47.4423 47.0321 48.5124 47.5223C49.911 48.163 51.6444 48.1514 53.0239 47.4921C54.4317 46.8192 55.4186 45.5876 55.7585 44.0792C55.9559 43.2032 55.8451 41.9923 55.4879 41.1207C54.8727 39.6196 53.4413 38.4823 51.7674 38.1645C51.2075 38.0582 50.0728 38.0744 49.528 38.1964ZM10.0957 38.3189C10.0809 38.3572 10.0756 38.662 10.084 38.9962L10.0993 39.6039L11.7469 39.6179L13.3945 39.632V43.7217V47.8115H14.0375H14.6805V43.7218V39.632L16.3013 39.6179L17.9221 39.6039L17.9371 38.9265L17.9521 38.2492H14.0374C10.8577 38.2492 10.1176 38.2623 10.0957 38.3189ZM19.8243 43.0304V47.8115H20.4672H21.1102V45.8991V43.9866H22.2679C23.1467 43.9866 23.5038 43.9665 23.7505 43.9031C24.7728 43.6404 25.5376 42.8724 25.7711 41.8736C25.857 41.5063 25.858 40.7863 25.7732 40.4237C25.5852 39.6205 25.0748 38.9694 24.3591 38.6196C23.6735 38.2846 23.4146 38.2512 21.4987 38.2501L19.8243 38.2492V43.0304ZM29.1476 40.4923C28.6379 41.7275 27.7543 43.8648 27.1839 45.2419C26.6135 46.6189 26.1469 47.7604 26.1469 47.7785C26.1469 47.7967 26.4577 47.8115 26.8377 47.8115C27.3397 47.8115 27.5361 47.7933 27.5564 47.7451C27.5717 47.7086 27.7693 47.2364 27.9954 46.6959C28.2215 46.1554 28.4191 45.683 28.4346 45.6462C28.4567 45.5934 28.9639 45.5822 30.8198 45.5931L33.1768 45.6069L33.6162 46.6959L34.0556 47.7849L34.7628 47.7998C35.1518 47.8079 35.47 47.8031 35.47 47.789C35.47 47.775 35.0083 46.6567 34.444 45.304C33.8797 43.9512 32.9909 41.8165 32.4688 40.5601L31.5197 38.2758L30.7969 38.2611L30.0741 38.2463L29.1476 40.4923ZM36.488 38.2762C36.488 38.3008 39.1016 42.0348 39.5222 42.6111L39.7008 42.8558L38.1955 45.0282C37.3676 46.223 36.6085 47.3142 36.5088 47.453C36.4089 47.5919 36.3273 47.7294 36.3273 47.7585C36.3273 47.7914 36.6305 47.8115 37.126 47.8115H37.9247L39.222 45.9503L40.5193 44.089L40.9458 44.6886C41.1805 45.0183 41.7736 45.8559 42.2639 46.5498L43.1555 47.8115H43.9475C44.3831 47.8115 44.7396 47.7996 44.7396 47.7851C44.7396 47.7706 44.3937 47.2626 43.971 46.6562C43.5483 46.0499 42.7888 44.9605 42.2832 44.2354C41.7776 43.5104 41.3639 42.892 41.3639 42.8612C41.3639 42.8304 41.602 42.4674 41.8929 42.0545C42.1839 41.6416 42.897 40.6225 43.4776 39.7898L44.5332 38.2758L43.7423 38.261C43.1541 38.2501 42.9346 38.2637 42.8858 38.3141C42.8497 38.3515 42.3094 39.0992 41.685 39.9757C41.0607 40.8523 40.53 41.5695 40.5057 41.5695C40.4672 41.5695 39.9659 40.8831 38.4783 38.7937L38.0907 38.2492H37.2893C36.8486 38.2492 36.488 38.2614 36.488 38.2762ZM58.1349 43.0304V47.8115L59.97 47.8106C62.0328 47.8096 62.2986 47.7788 62.9379 47.4668C63.868 47.0131 64.4048 46.1088 64.4032 44.9981C64.4022 44.2434 64.2075 43.7109 63.752 43.2168C63.606 43.0584 63.4017 42.8769 63.298 42.8133L63.1093 42.6977L63.3251 42.4789C63.4437 42.3586 63.6199 42.0927 63.7167 41.8882C63.8734 41.5569 63.8947 41.4555 63.9124 40.9585C63.929 40.4917 63.9132 40.3444 63.8156 40.0554C63.5051 39.136 62.8001 38.5433 61.7672 38.3332C61.4446 38.2676 61.0023 38.2492 59.7445 38.2492H58.1349V43.0304ZM68.9473 39.8813C68.5731 40.7806 67.6871 42.9091 66.9784 44.6113C66.2697 46.3136 65.6898 47.7307 65.6898 47.7605C65.6898 47.7952 65.9409 47.8093 66.3914 47.7998L67.0928 47.7849L67.5346 46.6959L67.9762 45.6069L70.3373 45.5931L72.6983 45.5792L73.1457 46.6948L73.5931 47.8104L74.3022 47.8109L75.0114 47.8115L74.9085 47.5592C74.4327 46.3923 72.9558 42.814 72.1075 40.7726L71.0698 38.2758L70.3488 38.2611L69.6277 38.2464L68.9473 39.8813ZM76.8347 43.0304V47.8148L77.4911 47.7999L78.1475 47.7849L78.1615 45.6733L78.1755 43.5616H80.9879H83.8003V45.6866V47.8115H84.4433H85.0862V43.0304V38.2492H84.4433H83.8003V40.2148V42.1804H80.9879H78.1756L78.1615 40.2281L78.1475 38.2758L77.4911 38.2608L76.8347 38.2459V43.0304ZM88.0868 43.0304V47.8115H88.8042H89.5218L91.7165 44.8764C92.9237 43.2621 94.1741 41.5896 94.4953 41.1597C94.8164 40.7298 95.0973 40.3772 95.1193 40.3761C95.1414 40.3751 95.1595 42.0476 95.1595 44.0928V47.8115H95.8025H96.4455V43.0304V38.2492H95.7355H95.0256L93.6082 40.1218C92.8287 41.1518 91.5568 42.8385 90.7818 43.8701L89.3727 45.7458V41.9975V38.2492H88.7298H88.0868V43.0304ZM99.3924 43.0304V47.8115H102.127H104.861L104.846 47.1342L104.831 46.4569L102.781 46.4429L100.732 46.429V44.9953V43.5616H102.582H104.432L104.417 42.8843L104.402 42.2069L102.567 42.193L100.732 42.179V40.9053V39.6317L102.781 39.6178L104.831 39.6039L104.846 38.9265L104.861 38.2492H102.127H99.3924V43.0304ZM51.6906 39.6083C52.916 39.8771 53.9433 40.7848 54.3708 41.9767C54.4925 42.3161 54.5107 42.4519 54.512 43.0304C54.5132 43.6127 54.4961 43.7434 54.3728 44.0928C54.1576 44.7022 53.9771 44.9817 53.477 45.4794C53.1084 45.8462 52.9281 45.9797 52.5624 46.157C51.9344 46.4615 51.3872 46.5898 50.7187 46.5893C49.1862 46.5882 47.9283 45.867 47.2857 44.6209C46.9882 44.0439 46.9126 43.7182 46.9166 43.0304C46.9211 42.2633 47.0762 41.7417 47.4761 41.1488C48.364 39.8326 49.9951 39.2365 51.6906 39.6083ZM23.6038 39.7561C24.5779 40.2058 24.7877 41.5278 24.0008 42.2576C23.5683 42.6587 23.4928 42.6772 22.1952 42.7011L21.0566 42.7222V41.1763V39.6304L22.1952 39.631C23.2768 39.6314 23.3473 39.6377 23.6038 39.7561ZM61.9689 39.8177C62.3359 40.0429 62.5445 40.3914 62.5725 40.8261C62.6003 41.2602 62.5134 41.5075 62.2367 41.7819C61.8831 42.1325 61.6692 42.1804 60.4561 42.1804H59.4208V40.9016V39.6229L60.5638 39.6399L61.7068 39.657L61.9689 39.8177ZM31.7149 42.1408C32.1888 43.2732 32.5766 44.2115 32.5766 44.2259C32.5766 44.2404 31.7809 44.2522 30.8084 44.2522C29.8359 44.2522 29.0402 44.2347 29.0402 44.2133C29.0402 44.1055 30.7843 40.0104 30.816 40.0435C30.8364 40.0647 31.2409 41.0085 31.7149 42.1408ZM71.2355 42.1007C71.6955 43.211 72.0766 44.1433 72.0823 44.1725C72.0891 44.2068 71.4716 44.2306 70.338 44.2397C69.0786 44.2497 68.5832 44.237 68.5832 44.1946C68.5832 44.0641 70.3179 40.001 70.357 40.04C70.3801 40.0631 70.7754 40.9904 71.2355 42.1007ZM62.2338 43.7115C62.5759 43.8666 62.772 44.0525 62.9421 44.3831C63.3214 45.1204 62.8858 46.1143 62.0791 46.3518C61.8787 46.4108 61.5155 46.4303 60.6166 46.4303H59.4208V44.9911V43.5518L60.6934 43.5709C61.8828 43.5887 61.9834 43.5979 62.2338 43.7115Z" fill="#50287D"/>
<path d="M175 23L187 0H163L175 23Z" fill="#CEDC00"/>
</svg>
