<svg width="138" height="32" viewBox="0 0 138 32" fill="none" xmlns="http://www.w3.org/2000/svg">
    <g clip-path="url(#clip0)">
        <g class="words">
            <path
                d="M44.6875 24H48.0703V18.3281H50.5391L53.5703 24H57.3047L53.9063 17.7813C55.7266 17 56.7344 15.4141 56.7344 13.2266C56.7344 10.0469 54.6328 8 51 8H44.6875V24ZM48.0703 15.6094V10.7656H50.3516C52.3047 10.7656 53.25 11.6328 53.25 13.2266C53.25 14.8125 52.3047 15.6094 50.3672 15.6094H48.0703Z"
                fill="#172335"/>
            <path
                d="M64.1181 24.2344C67.0868 24.2344 69.0868 22.7891 69.5556 20.5625L66.4775 20.3594C66.1415 21.2734 65.2822 21.75 64.1728 21.75C62.5087 21.75 61.454 20.6484 61.454 18.8594V18.8516H69.6259V17.9375C69.6259 13.8594 67.1572 11.8438 63.9853 11.8438C60.454 11.8438 58.165 14.3516 58.165 18.0547C58.165 21.8594 60.4228 24.2344 64.1181 24.2344ZM61.454 16.7891C61.5243 15.4219 62.5634 14.3281 64.04 14.3281C65.4853 14.3281 66.4853 15.3594 66.4931 16.7891H61.454Z"
                fill="#172335"/>
            <path
                d="M74.9057 17.0625C74.9135 15.5156 75.8354 14.6094 77.1791 14.6094C78.5151 14.6094 79.3198 15.4844 79.312 16.9531V24H82.6401V16.3594C82.6401 13.5625 80.9995 11.8438 78.4995 11.8438C76.7182 11.8438 75.4291 12.7188 74.8901 14.1172H74.7495V12H71.5776V24H74.9057V17.0625Z"
                fill="#172335"/>
            <path
                d="M91.4257 12H89.1679V9.125H85.8398V12H84.1992V14.5H85.8398V20.75C85.8242 23.1016 87.4257 24.2656 89.8398 24.1641C90.6992 24.1328 91.3086 23.9609 91.6445 23.8516L91.1211 21.375C90.957 21.4063 90.6054 21.4844 90.2929 21.4844C89.6289 21.4844 89.1679 21.2344 89.1679 20.3125V14.5H91.4257V12Z"
                fill="#172335"/>
            <path
                d="M93.6943 24H97.0771V18.3281H99.5459L102.577 24H106.311L102.913 17.7813C104.733 17 105.741 15.4141 105.741 13.2266C105.741 10.0469 103.64 8 100.007 8H93.6943V24ZM97.0771 15.6094V10.7656H99.3584C101.311 10.7656 102.257 11.6328 102.257 13.2266C102.257 14.8125 101.311 15.6094 99.374 15.6094H97.0771Z"
                fill="#172335"/>
            <path
                d="M107.849 24H111.177V12H107.849V24ZM109.521 10.4531C110.513 10.4531 111.326 9.69531 111.326 8.76563C111.326 7.84375 110.513 7.08594 109.521 7.08594C108.537 7.08594 107.724 7.84375 107.724 8.76563C107.724 9.69531 108.537 10.4531 109.521 10.4531Z"
                fill="#172335"/>
            <path
                d="M118.045 24.1953C119.983 24.1953 120.991 23.0781 121.451 22.0781H121.592V24H124.873V8H121.553V14.0156H121.451C121.006 13.0391 120.045 11.8438 118.037 11.8438C115.405 11.8438 113.178 13.8906 113.178 18.0156C113.178 22.0312 115.311 24.1953 118.045 24.1953ZM119.1 21.5469C117.467 21.5469 116.576 20.0938 116.576 18C116.576 15.9219 117.451 14.4922 119.1 14.4922C120.717 14.4922 121.623 15.8594 121.623 18C121.623 20.1406 120.701 21.5469 119.1 21.5469Z"
                fill="#172335"/>
            <path
                d="M132.858 24.2344C135.827 24.2344 137.827 22.7891 138.296 20.5625L135.218 20.3594C134.882 21.2734 134.022 21.75 132.913 21.75C131.249 21.75 130.194 20.6484 130.194 18.8594V18.8516H138.366V17.9375C138.366 13.8594 135.897 11.8438 132.726 11.8438C129.194 11.8438 126.905 14.3516 126.905 18.0547C126.905 21.8594 129.163 24.2344 132.858 24.2344ZM130.194 16.7891C130.265 15.4219 131.304 14.3281 132.78 14.3281C134.226 14.3281 135.226 15.3594 135.233 16.7891H130.194Z"
                fill="#172335"/>
        </g>
        <g>
            <path d="M7.13104 2H4.06348L21.2273 29.5H33.3188L7.13104 2Z" fill="#307EFD"/>
            <path d="M2.96612 2L17.9899 29.5H5.22693L0 2H2.96612Z" fill="url(#paint0_linear)"/>
            <path
                d="M23.2534 2H4.07031L19.8912 27.4059C19.2874 26.2036 19.07 24.6684 19.4081 22.9919C19.9057 20.5478 23.8911 15.7049 23.8911 15.7049L26.0311 12.8882C29.5431 8.2428 27.9393 2 23.2534 2Z"
                fill="url(#paint1_linear)"/>
        </g>
    </g>
    <defs>
        <linearGradient id="paint0_linear" x1="15.2485" y1="24.4764" x2="-5.4644" y2="12.606"
                        gradientUnits="userSpaceOnUse">
            <stop stop-color="#53C0FD"/>
            <stop offset="1" stop-color="#5394FD"/>
        </linearGradient>
        <linearGradient id="paint1_linear" x1="21.6423" y1="14.1426" x2="0.982278" y2="2.30259"
                        gradientUnits="userSpaceOnUse">
            <stop stop-color="#53C0FD"/>
            <stop offset="1" stop-color="#4991F2"/>
        </linearGradient>
        <clipPath id="clip0">
            <rect width="138" height="32" fill="white"/>
        </clipPath>
    </defs>
</svg>
