<svg width="32" height="32" viewBox="0 0 32 32" fill="none" xmlns="http://www.w3.org/2000/svg">
    <path opacity="0.12"
          d="M16.7265 1.94078L9.4784 9.18888C8.44069 10.2266 7.92184 10.7454 7.55079 11.3509C7.22181 11.8878 6.97939 12.473 6.83241 13.0853C6.66663 13.7758 6.66663 14.5096 6.66663 15.9771V23.2006C6.66663 24.8808 6.66663 25.7209 6.99361 26.3626C7.28123 26.9271 7.74017 27.386 8.30465 27.6737C8.94639 28.0006 9.78646 28.0006 11.4666 28.0006H11.4666H23.8819C25.3434 28.0006 26.0742 28.0006 26.6644 27.7332C27.1846 27.4975 27.6267 27.1182 27.9387 26.6399C28.2928 26.0973 28.4039 25.375 28.6261 23.9305L29.8159 16.1972C30.109 14.292 30.2555 13.3394 29.9728 12.5982C29.7247 11.9476 29.258 11.4036 28.6527 11.0594C27.9631 10.6673 26.9993 10.6673 25.0717 10.6673H20.973C19.7577 10.6673 19.1501 10.6673 18.7702 10.4115C18.4381 10.1878 18.2092 9.84071 18.1345 9.44739C18.049 8.99742 18.2883 8.43892 18.767 7.32192L18.767 7.32191L20.0957 4.22181C20.1335 4.13344 20.1525 4.08925 20.1653 4.05621C20.662 2.77356 19.7457 1.38396 18.3711 1.33524C18.3356 1.33398 18.2876 1.33398 18.1914 1.33398C18.1622 1.33398 18.1476 1.33398 18.1336 1.33418C17.6227 1.34138 17.1339 1.54383 16.7676 1.89999C16.7575 1.90979 16.7472 1.9201 16.7266 1.94067L16.7265 1.94078Z"
          fill="white"/>
    <path fill-rule="evenodd" clip-rule="evenodd"
          d="M18.1914 2.08399C18.2951 2.08399 18.3259 2.08411 18.3445 2.08477C19.2036 2.11522 19.7763 2.98372 19.4659 3.78538C19.4592 3.8027 19.4471 3.83106 19.4063 3.92637L18.0777 7.02647L18.0638 7.05885L18.0637 7.05898C17.8362 7.58985 17.6455 8.03492 17.5259 8.40307C17.4035 8.77986 17.3196 9.1769 17.3977 9.58742C17.5098 10.1774 17.8531 10.6981 18.3512 11.0335C18.6978 11.267 19.0958 11.3463 19.4903 11.3822C19.8759 11.4173 20.3601 11.4173 20.9378 11.4173H20.9378H20.973H25.0717C26.0488 11.4173 26.7336 11.418 27.262 11.4636C27.7831 11.5085 28.0728 11.5925 28.282 11.7114C28.7359 11.9696 29.086 12.3776 29.2721 12.8655C29.3578 13.0904 29.3967 13.3894 29.3619 13.9113C29.3267 14.4404 29.2232 15.1174 29.0746 16.0832L27.8849 23.8165C27.772 24.55 27.6932 25.0587 27.6014 25.4534C27.5117 25.839 27.4208 26.0611 27.3106 26.2301C27.0765 26.5888 26.745 26.8733 26.3548 27.0501C26.1711 27.1334 25.9377 27.1893 25.543 27.2194C25.1389 27.2501 24.6241 27.2507 23.8819 27.2507H11.4666C10.6142 27.2507 10.0199 27.2501 9.55731 27.2123C9.10343 27.1752 8.84266 27.1061 8.64515 27.0054C8.22178 26.7897 7.87758 26.4455 7.66186 26.0221C7.56122 25.8246 7.49209 25.5638 7.45501 25.11C7.41721 24.6473 7.41663 24.0531 7.41663 23.2007V15.9771C7.41663 14.4739 7.42145 13.8445 7.56168 13.2603C7.69029 12.7247 7.90241 12.2125 8.19026 11.7428C8.50415 11.2306 8.94578 10.7822 10.0087 9.71921L17.2568 2.47111L17.2904 2.43774C17.5193 2.21514 17.8248 2.08861 18.1441 2.08411L18.1914 2.08399ZM18.3976 0.585712C18.3486 0.583973 18.288 0.583978 18.2074 0.583985L18.1914 0.583986L18.1871 0.583986C18.1621 0.583985 18.1425 0.583985 18.123 0.584259C17.4205 0.594153 16.7485 0.872524 16.2448 1.36225C16.2308 1.37582 16.2169 1.38969 16.1993 1.40735L16.1992 1.40743L16.1962 1.41045L8.94807 8.65855L8.87523 8.73138C7.90683 9.69962 7.32915 10.2772 6.9113 10.9591C6.54121 11.563 6.26848 12.2214 6.10313 12.9102C5.91644 13.6878 5.91651 14.5047 5.91662 15.8741L5.91663 15.9771V23.2007L5.91663 23.2328C5.91662 24.0456 5.91661 24.7012 5.95999 25.2321C6.00465 25.7788 6.09901 26.2589 6.32535 26.7031C6.68488 27.4087 7.25855 27.9824 7.96416 28.3419C8.40838 28.5683 8.88852 28.6626 9.43516 28.7073C9.96606 28.7507 10.6217 28.7507 11.4345 28.7507H11.4666H23.8819H23.9113C24.6172 28.7507 25.1891 28.7507 25.6568 28.7151C26.1404 28.6782 26.5675 28.6005 26.9739 28.4164C27.6242 28.1217 28.1768 27.6476 28.5669 27.0498C28.8107 26.6761 28.9524 26.2657 29.0624 25.7934C29.1687 25.3365 29.2556 24.7712 29.3629 24.0736L29.363 24.0735L29.3674 24.0446L30.5572 16.3112L30.5624 16.2769C30.7045 15.3534 30.8185 14.6124 30.8586 14.0111C30.8997 13.3951 30.8705 12.8473 30.6736 12.3309C30.3634 11.5177 29.78 10.8377 29.0234 10.4075C28.543 10.1343 28.006 10.0222 27.3909 9.96911C26.7905 9.91731 26.0408 9.91731 25.1065 9.91732H25.1064H25.0717H20.973C20.3509 9.91732 19.9356 9.91658 19.6263 9.88843C19.3183 9.86038 19.2224 9.81182 19.1891 9.78939C19.0231 9.67757 18.9087 9.50401 18.8713 9.30735C18.8638 9.26791 18.8569 9.16072 18.9525 8.86652C19.0484 8.57115 19.2114 8.18913 19.4564 7.61735L20.785 4.51725L20.7913 4.50254L20.7913 4.50248C20.8231 4.42849 20.8469 4.37282 20.8647 4.32705C21.5476 2.5634 20.2877 0.652704 18.3976 0.585712ZM3.41663 10.6673C3.41663 10.2531 3.08084 9.91732 2.66663 9.91732C2.25241 9.91732 1.91663 10.2531 1.91663 10.6673L1.91663 26.6673C1.91663 27.0815 2.25241 27.4173 2.66663 27.4173C3.08084 27.4173 3.41663 27.0815 3.41663 26.6673L3.41663 10.6673Z"
          fill="white"/>
</svg>
