<svg width="188" height="48" viewBox="0 0 188 48" fill="none" xmlns="http://www.w3.org/2000/svg">
<path fill-rule="evenodd" clip-rule="evenodd" d="M124.525 5.376C128.556 1.92 133.739 0 139.497 0C152.742 0 163.492 10.752 163.492 24C163.492 37.248 152.742 48 139.113 48C133.547 48 128.172 45.888 124.141 42.624C120.11 46.08 114.927 48 109.169 48C103.602 48 98.2272 45.888 94.1962 42.624C90.1651 46.08 84.9824 48 79.2237 48C73.6571 48 68.2824 45.888 64.2513 42.624C60.2203 46.08 55.0375 48 49.2789 48C36.0341 48 25.2847 37.248 25.2847 24C25.2847 10.752 36.0341 0 49.2789 0C54.8456 0 60.2203 1.92 64.4433 5.376C68.4743 1.92 73.6571 0 79.4157 0C84.9824 0 90.3571 1.92 94.3881 5.376C98.4192 1.92 103.602 0 109.361 0C115.119 0 120.494 1.92 124.525 5.376ZM49.0873 5.37656C38.9137 5.37656 30.6597 13.8246 30.6597 24.0006C30.6597 34.1766 38.9137 42.6246 49.0873 42.6246C53.3103 42.6246 57.3413 41.2806 60.4126 38.7846C57.3413 34.7526 55.4218 29.5686 55.4218 24.0006C55.4218 18.4326 57.3413 13.2486 60.4126 9.21656C57.1494 6.72056 53.3103 5.37656 49.0873 5.37656ZM68.0906 38.7846C71.1618 34.7526 73.0814 29.5686 73.0814 24.0006C73.0814 18.4326 71.1618 13.2486 68.0906 9.21656C71.1618 6.72056 75.1929 5.37656 79.4159 5.37656C83.6389 5.37656 87.4779 6.72056 90.7412 9.21656C87.6699 13.2486 85.7504 18.4326 85.7504 24.0006C85.7504 29.5686 87.6699 34.7526 90.7412 38.7846C87.6699 41.2806 83.6389 42.6246 79.4159 42.6246C75.0009 42.6246 71.1618 41.0886 68.0906 38.7846ZM103.218 24.0006C103.218 29.5686 101.299 34.7526 98.2274 38.7846C101.299 41.0886 105.138 42.6246 109.553 42.6246C113.776 42.6246 117.807 41.2806 120.878 38.7846C117.807 34.7526 115.887 29.5686 115.887 24.0006C115.887 18.4326 117.807 13.2486 120.878 9.21656C117.615 6.72056 113.776 5.37656 109.553 5.37656C105.33 5.37656 101.299 6.72056 98.2274 9.21656C101.299 13.2486 103.218 18.4326 103.218 24.0006ZM128.173 38.7846C131.436 41.2806 135.275 42.6246 139.498 42.6246C149.863 42.6246 158.117 34.1766 157.925 24.0006C157.925 13.6326 149.671 5.37656 139.498 5.37656C135.275 5.37656 131.244 6.72056 128.173 9.21656C131.244 13.2486 133.163 18.4326 133.163 24.0006C133.163 29.5686 131.244 34.7526 128.173 38.7846ZM64.2515 34.7522C62.14 31.6802 60.7963 28.0322 60.7963 24.0002C60.7963 19.9682 62.14 16.3202 64.2515 13.2482C66.363 16.3202 67.7067 19.9682 67.7067 24.0002C67.7067 28.0322 66.363 31.6802 64.2515 34.7522ZM90.9331 24.0002C90.9331 28.0322 92.2768 31.6802 94.3883 34.7522C96.4998 31.6802 97.8435 28.0322 97.8435 24.0002C97.8435 19.9682 96.4998 16.3202 94.3883 13.2482C92.2768 16.3202 90.9331 19.9682 90.9331 24.0002ZM124.525 34.7522C122.414 31.6802 121.07 28.0322 121.07 24.0002C121.07 19.9682 122.414 16.3202 124.525 13.2482C126.637 16.3202 127.98 19.9682 127.98 24.0002C127.98 28.0322 126.637 31.6802 124.525 34.7522Z" fill="black"/>
</svg>
